<?xml version="1.0" encoding="utf-8"?>
<svg version="1.1" xmlns="http://www.w3.org/2000/svg" width="400px" height="200px" viewBox="0 0 400 200">
<g>
	<g transform="translate(6,14) scale(0.78)">
	<path fill="#FFFFFF" d="M30,30h100v30H60v30h60v30H60v50H30V30z"/>
	<path fill="#FFFFFF" d="M160,30h40l35,90l35-90h40v140h-30V75l-35,95h-20l-35-95v95h-30V30z"/>
	</g>
	<g transform="translate(35.7,151) scale(0.84)" fill="none" stroke="#FFFFFF" stroke-width="7" stroke-linecap="round" stroke-linejoin="round"><path d="M26,8C24,3 6,2 4,10C3,16 9,17 15,18C21,19 27,20 26,27C25,34 6,35 4,28"/><path d="M43,0h30M58,0v36"/><path d="M114,0H86v36h28M86,18h22"/><path d="M129,36V0h18a9,9 0 0 1 0,18H129M143,18l16,18"/><path d="M200,0h-28v36h28M172,18h22"/><rect x="215" y="0" width="30" height="36" rx="11"/></g>
	<rect fill="none" stroke="#FFFFFF" stroke-opacity="0.6" stroke-width="2.5" x="262.25" y="132.05" width="11.5" height="36.70" rx="6"/>
	<rect fill="none" stroke="#FFFFFF" stroke-opacity="0.6" stroke-width="2.5" x="281.25" y="125.75" width="11.5" height="43.00" rx="6"/>
	<rect fill="none" stroke="#FFFFFF" stroke-opacity="0.6" stroke-width="2.5" x="300.25" y="106.85" width="11.5" height="61.90" rx="6"/>
	<rect fill="none" stroke="#FFFFFF" stroke-opacity="0.6" stroke-width="2.5" x="319.25" y="75.35" width="11.5" height="93.40" rx="6"/>
	<rect fill="none" stroke="#FFFFFF" stroke-opacity="0.6" stroke-width="2.5" x="338.25" y="31.25" width="11.5" height="137.50" rx="6"/>
</g>
</svg>
